<svg width="40" height="40" viewBox="0 0 40 40" xmlns="http://www.w3.org/2000/svg">
  <path d="M0 0h40v40H0z" fill="none" />
  <path d="M0 0v40m40-40H0m1 0v40m40-40H1m1 0v40m40-40H2m1 0v40m40-40H3m1 0v40m40-40H4m1 0v40m40-40H5m1 0v40m40-40H6m1 0v40m40-40H7m1 0v40m40-40H8m1 0v40m40-40H9m1 0v40m40-40H10m1 0v40m40-40H11m1 0v40m40-40H12m1 0v40m40-40H13m1 0v40m40-40H14m1 0v40m40-40H15m1 0v40m40-40H16m1 0v40m40-40H17m1 0v40m40-40H18m1 0v40m40-40H19m1 0v40m40-40H20m1 0v40m40-40H21m1 0v40m40-40H22m1 0v40m40-40H23m1 0v40m40-40H24m1 0v40m40-40H25m1 0v40m40-40H26m1 0v40m40-40H27m1 0v40m40-40H28m1 0v40m40-40H29m1 0v40m40-40H30m1 0v40m40-40H31m1 0v40m40-40H32m1 0v40m40-40H33m1 0v40m40-40H34m1 0v40m40-40H35m1 0v40m40-40H36m1 0v40m40-40H37m1 0v40m40-40H38m1 0v40m40-40H39M0 1h40M0 2h40M0 3h40M0 4h40M0 5h40M0 6h40M0 7h40M0 8h40M0 9h40M0 10h40M0 11h40M0 12h40M0 13h40M0 14h40M0 15h40M0 16h40M0 17h40M0 18h40M0 19h40M0 20h40M0 21h40M0 22h40M0 23h40M0 24h40M0 25h40M0 26h40M0 27h40M0 28h40M0 29h40M0 30h40M0 31h40M0 32h40M0 33h40M0 34h40M0 35h40M0 36h40M0 37h40M0 38h40M0 39h40" stroke="#FFFFFF" stroke-opacity="0.05" />
</svg> 